<?xml version="1.0" encoding="UTF-8" standalone="no"?>
<!-- Created with Inkscape (http://www.inkscape.org/) -->
<svg
   xmlns:dc="http://purl.org/dc/elements/1.1/"
   xmlns:cc="http://web.resource.org/cc/"
   xmlns:rdf="http://www.w3.org/1999/02/22-rdf-syntax-ns#"
   xmlns:svg="http://www.w3.org/2000/svg"
   xmlns="http://www.w3.org/2000/svg"
   xmlns:xlink="http://www.w3.org/1999/xlink"
   xmlns:sodipodi="http://sodipodi.sourceforge.net/DTD/sodipodi-0.dtd"
   xmlns:inkscape="http://www.inkscape.org/namespaces/inkscape"
   width="304.99991"
   height="267"
   id="svg2299"
   sodipodi:version="0.32"
   inkscape:version="0.45"
   version="1.0"
   sodipodi:docbase="/Volumes/RAQUEL-1/mahjongg/kids"
   sodipodi:docname="kids_bk6.svg"
   inkscape:output_extension="org.inkscape.output.svg.inkscape"
   sodipodi:modified="true">
  <defs
     id="defs2301" />
  <sodipodi:namedview
     id="base"
     pagecolor="#ffffff"
     bordercolor="#666666"
     borderopacity="1.0"
     gridtolerance="10000"
     guidetolerance="10"
     objecttolerance="10"
     inkscape:pageopacity="0.0"
     inkscape:pageshadow="2"
     inkscape:zoom="1"
     inkscape:cx="138.31755"
     inkscape:cy="77.957071"
     inkscape:document-units="px"
     inkscape:current-layer="layer2"
     width="305px"
     height="1052.36px"
     inkscape:window-width="1380"
     inkscape:window-height="812"
     inkscape:window-x="60"
     inkscape:window-y="42" />
  <metadata
     id="metadata2304">
    <rdf:RDF>
      <cc:Work
         rdf:about="">
        <dc:format>image/svg+xml</dc:format>
        <dc:type
           rdf:resource="http://purl.org/dc/dcmitype/StillImage" />
      </cc:Work>
    </rdf:RDF>
  </metadata>
  <g
     inkscape:label="bk"
     inkscape:groupmode="layer"
     id="layer1"
     transform="translate(0,-785.36218)"
     style="display:inline"
     sodipodi:insensitive="true">
    <rect
       style="opacity:1;color:#000000;fill:#dbdbb9;fill-opacity:1;fill-rule:evenodd;stroke:none;stroke-width:2.07561374;stroke-linecap:butt;stroke-linejoin:miter;marker:none;marker-start:none;marker-mid:none;marker-end:none;stroke-miterlimit:4;stroke-dasharray:none;stroke-dashoffset:0;stroke-opacity:1;visibility:visible;display:inline;overflow:visible;enable-background:accumulate"
       id="rect3461"
       width="632.52222"
       height="564.22559"
       x="-163.76111"
       y="636.74939" />
  </g>
  <g
     inkscape:groupmode="layer"
     id="layer2"
     style="display:inline">
    <g
       id="TEXTURE"
       inkscape:label="#g3539"
       style="opacity:1">
      <path
         id="path3278"
         d="M 304.50241,100.79241 C 300.29071,101.77647 296.26841,97.56845 292.14531,98.45888 C 287.20171,99.76557 282.05311,100.32996 276.92581,100.32999 C 270.73561,100.32999 264.71801,99.8622 258.52091,99.8622 C 253.06621,99.8622 247.78571,100.84928 242.59351,103.13664 C 237.50641,105.37778 232.60431,107.83532 227.37411,109.2178 C 222.53561,110.49674 217.77461,112.81359 212.86251,113.8956 C 208.13681,114.93653 203.98291,116.23451 199.05881,116.23451 C 193.52821,116.23451 188.50671,113.91305 183.13141,112.49227 C 179.22631,111.46002 174.09811,110.66189 170.03561,111.5567 C 165.21741,112.61805 160.34821,111.55673 155.52401,111.5567 C 150.75081,111.5567 146.08711,112.49224 141.36641,112.49227 C 136.81051,112.49227 133.73021,109.95231 129.68641,107.81446 C 126.59681,106.18118 123.71411,103.73617 120.48391,102.66887 C 117.24601,101.59903 114.46031,99.20386 111.28141,97.5233 C 109.38001,96.51809 106.19081,94.00033 105.61841,90.97436 C 104.92261,87.29602 105.26441,84.60931 105.26441,80.6832 C 105.26441,75.70726 107.18901,68.87166 109.51171,64.77865 C 112.38231,59.72012 115.59211,55.48312 120.13001,53.08415 C 124.52271,50.7619 128.82091,51.73287 133.22581,50.27746 C 137.14431,48.98274 141.42321,47.93855 145.61371,47.93855 C 151.15421,47.93855 156.47721,48.66417 161.89501,47.47078 C 167.81301,46.16719 174.12081,44.99261 179.94601,42.79297 C 184.92441,40.91308 192.07751,40.24165 197.28911,41.38963 C 201.85791,42.396 207.10321,41.43233 211.44671,43.72853 C 215.93661,46.10215 220.06711,49.78265 224.54251,52.14858 C 228.90241,54.45342 232.01231,53.08415 236.57651,53.08415 C 240.22191,53.08415 244.00761,51.21346 247.54871,50.27746 C 250.85651,49.40312 253.95681,48.87414 257.45901,48.87413 C 260.88031,48.87413 264.06571,48.40635 267.36941,48.40634 C 270.44711,48.40634 273.61721,46.89601 276.57191,46.896 C 279.86151,46.896 283.43951,45.05876 286.63631,45.05875 C 289.14011,45.05875 292.94451,44.42752 295.45651,44.42753 C 299.84341,45.53288 301.72671,47.62411 304.50241,49.70595"
         style="opacity:0.2;color:#000000;fill:#cccc9c;fill-opacity:1;fill-rule:evenodd;stroke:#9a9856;stroke-width:0.99501836;stroke-linecap:butt;stroke-linejoin:miter;marker:none;marker-start:none;marker-mid:none;marker-end:none;stroke-miterlimit:4;stroke-dasharray:none;stroke-dashoffset:0;stroke-opacity:1;visibility:visible;display:inline;overflow:visible;enable-background:accumulate" />
      <path
         id="path3276"
         d="M 304.50241,91.97363 C 299.16581,92.14998 298.79211,87.86278 294.62281,88.63546 C 290.45361,89.40813 287.99681,88.79645 285.06641,89.57101 C 281.88061,90.41313 278.99421,91.34344 275.86401,92.37771 C 272.06211,93.63385 267.89491,92.80533 263.83001,91.90992 C 258.28051,90.68751 252.77511,90.15685 247.19481,89.10325 C 241.57781,88.04273 242.04981,85.59219 236.32611,85.59219 C 233.85521,85.59217 226.91911,83.32774 224.83971,84.7018 C 222.78251,86.06128 217.46651,86.26675 215.34011,87.67195 C 213.46161,88.91331 211.19261,94.73461 209.32311,96.58773 C 206.69191,99.1958 202.52291,101.26554 199.05881,101.26554 C 193.03671,101.26554 187.30471,105.00778 181.36171,105.00778 C 175.05661,105.00778 168.75411,103.60444 162.60291,103.60444 C 157.31461,103.60444 152.52271,100.75285 147.38341,99.39442 C 146.79351,99.23847 146.20361,99.08257 145.61371,98.92663 C 141.92451,97.95147 138.09901,97.99107 134.28761,97.99107 C 131.36771,97.99107 128.59541,98.91702 125.79301,97.99107 C 123.40121,97.20079 120.67101,95.43159 118.71421,92.84549 C 116.18711,89.50558 113.96281,85.74996 114.82091,83.48987 C 114.16971,81.76876 114.93111,77.29377 115.17481,76.00538 C 115.52531,74.15221 116.84581,72.28115 117.65241,70.85979 C 118.80561,68.8275 119.34921,66.93181 121.19181,65.71421 C 123.58551,64.13239 125.52641,60.74482 127.91661,59.16529 C 130.94101,57.16678 133.60251,56.93581 136.76521,55.89082 C 140.89041,54.52782 145.88861,53.08415 150.21491,53.08415 C 155.35221,53.08415 160.31711,52.61635 165.43441,52.61635 C 169.74321,52.61635 173.80341,52.14858 178.17631,52.14858 C 181.48531,52.14858 184.57621,50.74524 188.08661,50.74524 C 190.89971,50.74523 194.61991,51.91083 197.28911,52.61635 C 201.12861,53.63125 204.52511,54.90327 208.26121,55.89082 C 212.10301,56.90631 215.51081,62.99803 219.27911,64.2431 C 221.73781,65.05552 227.71691,64.2431 230.24011,64.2431 C 235.25471,64.2431 238.20421,62.43973 243.30141,62.43973 C 249.93201,62.43973 256.71591,60.81415 263.12211,58.69751 C 268.81281,56.81727 274.43301,55.5206 280.11131,54.01969 C 284.88131,52.75885 289.45771,55.51876 294.22321,55.51876 C 295.48531,55.51876 301.29251,59.18366 304.50241,60.76259"
         style="opacity:0.2;color:#000000;fill:#dbdbb9;fill-opacity:1;fill-rule:evenodd;stroke:#9a9856;stroke-width:0.99501836;stroke-linecap:butt;stroke-linejoin:miter;marker:none;marker-start:none;marker-mid:none;marker-end:none;stroke-miterlimit:4;stroke-dasharray:none;stroke-dashoffset:0;stroke-opacity:1;visibility:visible;display:inline;overflow:visible;enable-background:accumulate" />
      <path
         id="path3268"
         d="M 0.49750918,238.88542 C 5.6043092,236.85982 14.732809,234.06512 16.963909,234.55662 C 21.426309,235.53952 25.647709,235.81642 29.705809,234.40402 C 35.839509,232.26902 41.422209,232.08392 46.695009,230.40742 C 50.755709,229.11622 54.278309,226.18462 57.313209,225.32262 C 60.348109,224.46072 64.745409,223.63692 68.138009,222.51592 C 71.530709,221.39502 76.031109,220.64482 79.464109,220.64482 C 83.226209,220.64482 89.842809,216.28002 93.621809,215.03152 C 98.245009,213.50395 103.59931,212.1804 107.77941,209.41813 C 111.93271,206.67356 115.44291,205.24883 119.81341,203.80476 C 123.78921,202.4911 126.68131,195.00659 128.30801,190.70688 C 129.47711,187.61664 126.08501,178.95482 125.47651,175.73791 C 124.52451,170.70541 122.98971,165.42249 121.22921,160.76895 C 119.38371,155.89073 116.89161,152.757 113.44251,150.47777 C 109.62731,147.95662 103.55891,150.47777 99.284809,150.47777 C 95.010809,150.47777 85.360309,148.90997 80.673309,147.67108 C 75.986309,146.43218 67.021009,145.38898 62.450909,144.67298 C 57.664309,143.92307 53.732009,141.3673 47.437409,140.76192 C 41.142709,140.15652 34.508109,141.37467 29.523309,138.6994 C 25.850109,136.7281 20.156809,135.73724 15.551709,134.17384 C 7.5552092,131.69749 4.9657092,133.01828 0.49750918,132.72045"
         style="opacity:0.2;color:#000000;fill:#cccc9c;fill-opacity:1;fill-rule:evenodd;stroke:#9a9856;stroke-width:0.99501836;stroke-linecap:butt;stroke-linejoin:miter;marker:none;marker-start:none;marker-mid:none;marker-end:none;stroke-miterlimit:4;stroke-dasharray:none;stroke-dashoffset:0;stroke-opacity:1;visibility:visible;display:inline;overflow:visible;enable-background:accumulate" />
      <path
         sodipodi:nodetypes="cccsssccsssssssssssssccssssccssscsc"
         d="M 304.50241,4.27252 C 304.761,4.4280129 304.44507,34.594674 304.50241,34.36465 C 299.20261,35.92034 287.40181,37.71968 281.56931,36.97677 C 275.93061,35.11373 269.92851,34.69707 263.75621,33.06558 C 257.21821,31.33737 251.07751,33.40379 244.57301,31.25462 C 239.59131,29.60865 235.93681,30.34915 230.87061,30.34915 C 227.31881,30.34915 219.42291,30.48082 216.48321,28.5382 C 203.94391,20.68868 194.02361,28.38867 179.48691,28.5382 C 174.64331,28.5382 169.58391,28.86744 165.09941,30.34915 C 159.96101,32.04692 155.75691,35.78197 150.02681,35.78198 C 144.88141,35.78198 138.04231,36.23341 132.89891,37.59295 C 128.90081,38.64975 123.32351,38.70875 119.88171,42.12031 C 116.69271,45.28134 113.28591,47.83715 109.60501,50.26959 C 106.38811,52.39531 103.16441,55.70242 99.328209,55.70242 C 95.409009,55.70242 86.843009,57.94634 82.792109,56.6079 C 78.741209,55.26947 75.610709,56.04606 71.830309,54.79697 C 68.049909,53.54787 63.682809,53.89148 59.498109,53.89148 C 55.085609,53.89148 50.544309,53.42309 46.480909,52.08051 C 42.563909,50.7863 38.768509,49.75866 34.833909,48.45862 C 31.322509,47.29842 25.492509,44.83673 21.131609,44.83674 C 18.951209,44.83675 12.506309,41.29724 7.5240092,38.67495 C 2.5418092,36.05268 2.9932092,34.34763 0.49750918,34.36465 C 0.50180916,34.38167 0.89022345,4.1617171 0.70410918,4.27252 C 4.8037092,4.02618 15.320009,-0.35349 19.854609,0.64538 C 30.680609,3.03006 39.414509,7.88916 50.684909,7.88916 C 59.854209,7.88916 69.072409,6.98371 78.089609,6.98371 C 88.801109,6.98371 99.349809,3.10933 110.29011,3.10933 C 121.81981,3.10933 133.87571,10.74873 145.23111,12.89268 C 157.81731,14.7126 170.62341,14.82755 182.91241,11.08171 C 191.12461,8.91103 199.52521,9.21461 207.57671,6.55436 C 217.29761,3.34247 225.58591,6.60759 235.59411,6.60759 C 239.46041,6.60759 248.49331,8.89068 253.56521,9.64719 C 258.63711,10.40371 266.84401,9.32834 270.90961,9.32834 C 277.59591,9.44316 284.72471,9.44601 290.70081,7.23256 C 296.67701,5.01911 299.95811,4.47417 304.50241,4.27252 z "
         style="opacity:0.2;color:#000000;fill:#cccc9c;fill-opacity:1;fill-rule:evenodd;stroke:none;stroke-width:0.99501836;stroke-linecap:butt;stroke-linejoin:miter;marker:none;marker-start:none;marker-mid:none;marker-end:none;stroke-miterlimit:4;stroke-dashoffset:0;stroke-opacity:1;visibility:visible;display:inline;overflow:visible;enable-background:accumulate"
         id="path3532" />
      <path
         sodipodi:nodetypes="ccssssssssssssscccsssssssssccssssc"
         d="M 304.50241,260.15242 C 304.54968,260.15096 304.49671,249.72702 304.50241,249.83882 C 300.75811,251.20062 290.99961,250.31052 286.16561,249.03272 C 281.33171,247.75492 276.54591,247.16162 271.30011,247.16162 C 266.48821,247.16152 261.86341,245.29052 257.14251,245.29052 C 253.22571,245.29042 247.34771,244.62702 243.69271,243.41932 C 238.12681,241.58032 233.26051,239.84032 227.41141,237.90772 C 219.22251,235.20202 210.32481,230.15712 201.92771,227.93762 C 195.79731,226.31712 189.74081,220.79702 183.52281,218.74252 C 176.93401,216.56552 169.21531,214.89852 162.28631,214.89852 C 154.50501,214.89852 147.87471,215.95402 140.34201,213.96295 C 135.71911,212.74101 131.48251,217.02972 126.89221,215.51302 C 119.00261,212.90626 107.64241,223.63762 99.992709,225.32262 C 89.398109,227.65632 76.723609,237.31652 66.014409,237.31652 C 57.861709,237.31652 47.577309,237.88202 39.822809,240.44422 C 33.997809,242.36882 27.406609,244.33912 21.417809,244.33912 C 13.903209,243.84812 6.4066092,247.25972 0.49750918,249.83882 C 0.65983774,249.91792 0.62870917,260.15398 0.49750918,260.15242 C 5.3663092,258.54372 16.548309,256.36602 24.650509,256.36602 C 32.752609,256.36602 35.977609,252.62922 45.889109,253.16122 C 55.800509,253.69332 61.563609,250.20972 68.812209,250.20972 C 74.282009,250.20972 86.635609,245.77012 92.174809,245.16732 C 97.668509,244.56942 107.18621,242.99612 110.98121,242.38752 C 115.98161,241.58552 119.41821,238.07602 123.89561,236.55442 C 128.72891,234.91182 136.56531,233.82292 141.81151,233.82292 C 146.01491,233.82292 152.64911,229.55492 156.84991,229.55492 C 162.50761,229.55492 172.80901,226.77312 177.98581,229.50982 C 185.03771,233.23792 189.58571,235.73022 196.82651,237.64412 C 203.61731,242.72942 208.99011,241.08662 216.31201,250.62362 C 220.30851,253.97122 225.84651,257.62312 232.92601,257.62312 C 239.30951,257.62312 245.84501,259.43412 252.10931,259.43412 C 258.13601,259.43412 265.45641,259.67972 271.29251,262.65122 C 275.95301,265.02422 282.93801,262.10052 289.10561,264.13842 C 295.27311,266.17622 299.63371,261.76102 304.50241,260.15242 z "
         style="opacity:0.2;color:#000000;fill:#cccc9c;fill-opacity:1;fill-rule:evenodd;stroke:none;stroke-width:0.99501836;stroke-linecap:butt;stroke-linejoin:miter;marker:none;marker-start:none;marker-mid:none;marker-end:none;stroke-miterlimit:4;stroke-dasharray:none;stroke-dashoffset:0;stroke-opacity:1;visibility:visible;display:inline;overflow:visible;enable-background:accumulate"
         id="path3525" />
      <path
         id="path3282"
         d="M 304.50241,132.72045 C 300.03431,132.42262 298.42921,132.27707 295.39771,132.64089 C 287.67561,132.64089 280.43251,133.45702 272.73661,133.45703 C 264.15911,133.45703 256.92851,138.3539 248.65931,138.35391 C 244.49001,138.35391 235.11001,137.82334 231.66351,140.80235 C 225.72261,145.93751 221.83921,143.63298 214.66781,145.69922 C 207.81841,147.67267 197.21941,148.13413 191.29861,152.22837 C 187.47771,154.87046 178.45221,158.27669 174.30281,159.23311 C 170.57451,160.09247 165.65411,163.31384 162.26411,163.31384 C 156.38351,163.31384 150.24821,164.12998 144.56021,164.12998 C 141.52381,164.12998 131.97771,166.28692 135.35421,171.4753 C 136.50841,173.24892 139.78651,183.41506 141.72761,184.53363 C 145.00511,186.42229 147.60531,186.69643 150.93361,188.61434 C 154.20921,190.50187 158.73381,190.65772 162.97231,191.87894 C 167.88721,193.29504 171.13521,194.35673 174.30281,199.22423 C 176.76231,203.00372 179.45291,203.41618 183.50891,205.75338 C 188.04291,208.36611 192.46081,210.0226 196.96381,213.91485 C 200.85691,217.27992 205.80711,219.93142 210.41881,221.26012 C 214.91261,222.55492 217.87941,225.65412 222.45751,226.97322 C 227.52761,228.43402 231.62291,229.42162 237.32881,229.42162 C 241.50871,229.42162 244.66931,232.67242 249.15071,232.67242 C 253.29811,232.67242 257.11691,231.43872 260.69801,233.50232 C 264.16781,235.50182 267.11581,235.96102 270.61221,236.76692 C 274.31031,237.61932 278.60991,238.05112 282.65091,239.21532 C 285.70011,240.09392 290.61091,239.43932 294.10661,240.44652 C 299.77861,240.73492 299.39561,240.91092 304.50241,238.88542"
         style="opacity:0.2;color:#000000;fill:#cccc9c;fill-opacity:1;fill-rule:evenodd;stroke:#9a9856;stroke-width:0.99501836;stroke-linecap:butt;stroke-linejoin:miter;marker:none;marker-start:none;marker-mid:none;marker-end:none;stroke-miterlimit:4;stroke-dasharray:none;stroke-dashoffset:0;stroke-opacity:1;visibility:visible;display:inline;overflow:visible;enable-background:accumulate" />
      <path
         id="path3284"
         d="M 304.50241,140.46904 C 302.91281,140.51017 293.54381,141.01386 291.14871,140.46177 C 286.37151,139.36061 283.53661,140.00252 279.11011,141.27792 C 274.30921,142.66116 268.82951,146.1748 263.53061,146.17479 C 256.99571,146.17479 247.91471,145.98124 241.57771,147.80707 C 236.55521,149.25417 231.24831,149.55899 225.99831,151.07165 C 225.05411,151.34369 224.12001,151.66782 223.16561,151.88782 C 217.39301,153.21839 212.34941,155.07855 206.87801,157.60081 C 200.43941,160.56902 194.63771,163.78001 187.75781,165.76226 C 182.49551,167.27845 176.37281,169.15232 173.59461,175.55601 C 171.10351,181.29799 172.24021,186.62747 176.42731,190.24662 C 181.85691,194.93986 187.21151,195.64488 193.42311,199.22423 C 198.68721,202.25769 202.67781,209.69334 208.29431,212.28257 C 212.32641,214.14131 216.70451,215.36372 221.04121,216.36332 C 227.11971,217.76442 233.28811,218.66772 239.45331,220.44402 C 244.07691,221.77612 249.51911,225.34092 254.32461,225.34092 C 258.57351,225.34092 262.82241,225.34092 267.07141,225.34092 C 272.53831,225.34092 276.91331,225.36672 281.94271,228.26492 C 285.75941,230.46422 300.80731,229.56722 304.50241,230.59622"
         style="opacity:0.2;color:#000000;fill:#dbdbb9;fill-opacity:1;fill-rule:evenodd;stroke:#9a9856;stroke-width:0.99501836;stroke-linecap:butt;stroke-linejoin:miter;marker:none;marker-start:none;marker-mid:none;marker-end:none;stroke-miterlimit:4;stroke-dasharray:none;stroke-dashoffset:0;stroke-opacity:1;visibility:visible;display:inline;overflow:visible;enable-background:accumulate" />
      <path
         sodipodi:nodetypes="ccsssssssssssssssssssccsssssssssssssc"
         d="M 304.50241,120.25137 C 304.70861,120.24769 304.45027,110.49221 304.50241,110.60832 C 300.44741,111.26014 294.41231,108.25852 291.74321,109.14042 C 289.07411,110.0223 285.29161,107.96039 280.88421,109.1254 C 276.44861,110.29783 271.65591,111.269 267.18181,112.74729 C 262.91861,114.15589 255.94911,115.46373 251.42411,115.46372 C 244.78691,115.46372 238.83561,120.89654 232.24091,120.89654 C 226.97171,120.89654 222.79461,124.11783 217.85341,125.42393 C 214.05521,126.42789 210.10171,127.75882 206.20641,129.04583 C 201.83321,130.49078 196.36561,130.85676 191.81901,130.85677 C 187.74701,130.85677 182.06561,132.16152 178.11671,130.85677 C 174.24301,129.57689 167.83821,128.14035 163.72921,128.14036 C 159.56931,128.14036 152.68921,126.12882 149.34171,127.23485 C 143.65171,129.11493 136.01651,127.87784 130.15851,126.32939 C 124.06581,124.71894 115.97021,122.83595 109.60501,124.51846 C 104.55271,125.85392 100.39991,124.51846 95.217509,124.51846 C 90.515809,124.51846 84.675409,125.10989 80.144909,123.61298 C 75.294109,122.01022 67.564509,119.99108 62.331909,119.99107 C 54.838609,119.99107 48.199909,115.46373 40.408109,115.46372 C 32.616409,115.46371 42.643009,115.46372 36.204209,115.46372 C 29.765409,115.46372 23.477409,114.15345 17.706009,114.15346 C 11.934609,114.15347 4.5525092,109.95649 0.49750918,110.60832 C 0.54965206,110.54586 0.64845202,120.43363 0.49750918,120.25137 C 1.9537092,120.06911 10.328309,124.82901 17.921709,124.82901 C 25.515209,124.82901 33.752409,130.84804 41.281909,131.79084 C 51.631709,133.08681 58.221909,136.73786 68.867609,136.73786 C 81.457209,136.73786 93.145909,137.58354 103.53211,139.54452 C 114.86681,141.68457 126.22441,146.53148 137.51041,149.51467 C 144.37711,151.3297 151.69651,147.18951 158.74691,147.18953 C 165.94141,147.18953 171.76371,148.50203 178.56761,146.25396 C 184.19071,144.39606 189.54421,139.98107 195.55681,137.99444 C 203.23981,135.45588 210.73501,135.9628 218.91681,135.9628 C 225.56281,135.9628 233.34151,130.7604 240.15331,128.95987 C 246.04291,127.40309 252.29691,125.93711 258.55821,124.28206 C 264.51231,122.70824 269.81051,121.12064 275.54741,119.60423 C 280.72061,118.23686 283.60871,119.60421 288.28931,119.60423 C 291.89021,119.60423 303.04621,120.43362 304.50241,120.25137 z "
         style="opacity:0.2;color:#000000;fill:#cccc9c;fill-opacity:1;fill-rule:evenodd;stroke:none;stroke-width:0.99501836;stroke-linecap:butt;stroke-linejoin:miter;marker:none;marker-start:none;marker-mid:none;marker-end:none;stroke-miterlimit:4;stroke-dasharray:none;stroke-dashoffset:0;stroke-opacity:1;visibility:visible;display:inline;overflow:visible;enable-background:accumulate"
         id="path3518" />
      <path
         id="path3270"
         d="M 0.49750918,140.46904 C 0.89490918,140.45876 12.513609,143.84338 25.233909,146.2261 C 38.209609,148.47178 38.859309,150.91457 49.777609,151.89832 C 54.632909,150.2941 70.249309,155.15558 75.216909,155.15558 C 80.184409,155.15558 88.126509,156.09113 91.498109,156.09113 C 94.869809,156.09113 102.84141,156.1365 104.24001,159.83339 C 106.40481,165.55536 107.72521,169.04559 109.90311,174.80234 C 111.34691,178.6188 113.73901,185.63726 110.61101,189.77133 C 107.58941,193.76465 106.63971,195.95544 103.53211,200.06252 C 100.26501,204.38041 97.618709,206.92806 92.913909,208.48255 C 87.312909,210.33316 82.658609,214.37419 76.632609,215.96702 C 70.606609,217.55992 67.111809,215.33602 61.128209,215.29062 C 55.144709,215.24532 52.811409,218.73682 49.493809,219.83292 C 40.496309,223.36462 31.505009,224.62892 22.373809,226.83242 C 18.488209,225.54862 4.1926092,231.62512 0.49750918,230.59622"
         style="opacity:0.2;color:#000000;fill:#dbdbb9;fill-opacity:1;fill-rule:evenodd;stroke:#9a9856;stroke-width:0.99501836;stroke-linecap:butt;stroke-linejoin:miter;marker:none;marker-start:none;marker-mid:none;marker-end:none;stroke-miterlimit:4;stroke-dasharray:none;stroke-dashoffset:0;stroke-opacity:1;visibility:visible;display:inline;overflow:visible;enable-background:accumulate" />
      <path
         id="path3228"
         d="M 0.49750918,151.39211 C 1.1543092,151.66975 16.147309,152.8677 21.478209,154.38918 C 27.391009,156.0767 27.736109,161.86169 42.866909,162.60435 C 48.469109,162.87931 67.180809,157.52966 81.684209,161.3209 C 96.187509,165.11214 102.35311,175.81158 103.88381,180.79843 C 105.52761,186.15343 102.26091,191.65999 96.062009,198.38778 C 89.863109,205.11557 79.330509,208.78235 73.336709,209.78405 C 67.823809,209.96149 61.659809,208.60841 57.998509,209.80534 C 50.479709,212.26332 39.101809,216.47912 35.557209,217.55302 C 26.732609,220.22642 16.468909,220.87802 14.700309,221.15332 C 7.6258092,222.25412 3.7722092,224.60832 0.49750918,223.88202"
         style="opacity:0.2;color:#000000;fill:#cccc9c;fill-opacity:1;fill-rule:evenodd;stroke:#9a9856;stroke-width:0.99501836;stroke-linecap:butt;stroke-linejoin:miter;marker:none;marker-start:none;marker-mid:none;marker-end:none;stroke-miterlimit:4;stroke-dasharray:none;stroke-dashoffset:0;stroke-opacity:1;visibility:visible;display:inline;overflow:visible;enable-background:accumulate" />
      <path
         id="path3230"
         d="M 0.49750918,212.77831 C 3.5423092,212.88595 12.517809,209.60939 19.716009,209.12453 C 31.230609,209.55266 39.081709,204.45909 51.844509,204.4191 C 54.089609,205.16093 57.342709,203.51971 61.105109,203.41455 C 64.867509,203.3094 69.139209,204.74032 71.677509,204.74032 C 75.445209,204.74032 79.623309,203.05048 83.003609,201.93362 C 86.965709,200.62451 89.771609,198.73899 92.206009,194.44914 C 94.498809,190.4088 95.745409,187.23159 95.745409,181.35129 C 95.745409,174.89398 89.373809,174.47583 84.960709,170.51372 C 79.856709,165.93125 73.335209,163.26177 69.553809,164.51117 C 68.610009,164.82304 67.666109,165.13487 66.722309,165.44674 C 61.318409,167.23223 55.663109,166.26881 50.441009,167.99426 C 45.128009,169.7497 38.485209,165.8079 33.326109,167.17161 C 28.166909,168.53532 22.298409,165.91392 15.837309,165.52773 C 9.3763092,165.14157 4.4843092,164.21201 0.49750918,162.1298"
         style="opacity:0.2;color:#000000;fill:#dbdbb9;fill-opacity:1;fill-rule:evenodd;stroke:#9a9856;stroke-width:0.99501836;stroke-linecap:butt;stroke-linejoin:miter;marker:none;marker-start:none;marker-mid:none;marker-end:none;stroke-miterlimit:4;stroke-dasharray:none;stroke-dashoffset:0;stroke-opacity:1;visibility:visible;display:inline;overflow:visible;enable-background:accumulate" />
      <path
         id="path3256"
         d="M 118.37741,259.85382 C 117.54751,260.95072 130.25671,264.38122 133.44991,264.38122 C 137.41211,264.38122 140.91821,264.38122 145.09691,264.38122 C 147.80231,264.38122 151.61871,265.09422 154.68861,266.10862 C 157.47651,267.02982 162.32101,266.16042 164.96531,265.28662 C 169.26881,263.86482 173.88661,264.82902 177.98261,263.47572 C 181.74081,262.23402 186.00831,263.76672 189.62951,262.57022 C 193.29681,261.35852 196.44781,260.09102 199.90631,258.94842 C 204.73771,257.35202 195.37801,252.01932 194.42531,251.70462 C 190.45471,250.39262 187.33801,247.95782 184.14861,246.27172 C 180.28601,244.22982 177.57161,242.64982 173.18671,242.64982 C 168.39091,242.64982 163.59511,242.64982 158.79931,242.64982 C 153.34171,242.64982 148.33461,245.42832 143.04161,247.17722 C 138.98621,248.51712 134.72501,250.37782 130.70951,251.70462 C 127.05141,252.91322 123.69471,252.66412 121.11781,253.51552 C 118.85291,254.26392 118.37741,256.84732 118.37741,259.85382 z "
         style="opacity:0.2;color:#000000;fill:#cccc9c;fill-opacity:1;fill-rule:evenodd;stroke:#9a9856;stroke-width:0.99501836;stroke-linecap:butt;stroke-linejoin:miter;marker:none;marker-start:none;marker-mid:none;marker-end:none;stroke-miterlimit:4;stroke-dasharray:none;stroke-dashoffset:0;stroke-opacity:1;visibility:visible;display:inline;overflow:visible;enable-background:accumulate" />
      <path
         id="path3258"
         d="M 160.32861,260.91472 C 162.97101,260.91472 169.04991,260.76792 171.81651,259.85382 C 176.65561,258.25492 177.35911,260.67782 180.72301,256.23202 C 183.80781,252.15492 178.39191,250.48162 176.61231,249.89362 C 173.24041,248.77952 169.54391,249.14272 166.33561,248.08272 C 163.34801,247.09552 159.15651,248.08272 156.05881,248.08272 C 151.87191,248.08272 149.67781,250.17772 147.15231,253.51552 C 143.75091,263.38072 155.17601,260.29082 160.32861,260.91472 z "
         style="opacity:0.2;color:#000000;fill:#dbdbb9;fill-opacity:1;fill-rule:evenodd;stroke:#9a9856;stroke-width:0.99501836;stroke-linecap:butt;stroke-linejoin:miter;marker:none;marker-start:none;marker-mid:none;marker-end:none;stroke-miterlimit:4;stroke-dasharray:none;stroke-dashoffset:0;stroke-opacity:1;visibility:visible;display:inline;overflow:visible;enable-background:accumulate" />
      <path
         id="path3240"
         d="M 0.49750918,49.70595 C 3.2732092,51.78779 13.033209,55.86176 20.857709,55.86176 C 28.682209,55.86176 27.990709,56.58557 35.519109,58.75286 C 44.303709,61.28183 53.544109,60.19452 62.238609,62.69754 C 67.898009,64.32679 73.446009,65.13504 78.681409,66.64226 C 82.923609,67.86351 88.028109,78.07732 89.537009,82.42107 C 91.433609,87.88117 87.942209,90.37803 88.958209,96.22753 C 89.862709,101.43565 82.090609,104.36939 80.051709,105.10309 C 76.763509,106.28637 72.689909,106.68961 69.089809,107.98509 C 57.126709,117.60612 53.354509,106.8111 40.314909,104.89467 C 30.371209,104.89466 23.503809,102.01268 13.595309,102.01268 C 3.6869092,102.01268 4.7092092,99.80835 0.49750918,100.79241"
         style="opacity:0.2;color:#000000;fill:#cccc9c;fill-opacity:1;fill-rule:evenodd;stroke:#9a9856;stroke-width:0.99501836;stroke-linecap:butt;stroke-linejoin:miter;marker:none;marker-start:none;marker-mid:none;marker-end:none;stroke-miterlimit:4;stroke-dasharray:none;stroke-dashoffset:0;stroke-opacity:1;visibility:visible;display:inline;overflow:visible;enable-background:accumulate" />
      <path
         id="path3242"
         d="M 0.49750918,60.76259 C 3.7074092,62.34152 13.410609,67.62843 19.761409,67.62843 C 26.112209,67.62843 32.326909,65.49355 38.259509,67.62843 C 41.945009,68.95469 45.574109,69.27444 49.221409,70.58696 C 53.274509,72.04549 56.864509,73.09083 60.868409,74.53168 C 65.345309,76.14272 70.539309,75.51783 75.255809,75.51783 C 80.167309,75.51783 82.107009,79.65323 82.107009,86.36577 C 82.107009,91.97188 79.448909,93.97899 75.941009,95.24133 C 72.424109,96.5069 69.005109,99.18604 64.294009,99.18604 C 59.648709,99.18604 55.630209,98.78031 51.276709,97.2137 C 45.029809,94.96576 37.124509,95.24133 30.723209,95.24133 C 25.431809,95.24133 22.305909,91.24556 17.432009,89.84246 C 12.558109,88.43937 5.8341092,91.79727 0.49750918,91.97363"
         style="opacity:0.2;color:#000000;fill:#dbdbb9;fill-opacity:1;fill-rule:evenodd;stroke:#9a9856;stroke-width:0.99501836;stroke-linecap:butt;stroke-linejoin:miter;marker:none;marker-start:none;marker-mid:none;marker-end:none;stroke-miterlimit:4;stroke-dasharray:none;stroke-dashoffset:0;stroke-opacity:1;visibility:visible;display:inline;overflow:visible;enable-background:accumulate" />
      <path
         id="path3250"
         d="M 65.238809,41.26199 C 67.317009,42.6353 75.110209,42.42548 76.749609,42.96718 C 80.092009,44.07153 83.730609,43.68922 87.026309,44.77813 C 90.422609,45.90027 95.234109,44.33437 97.303109,42.96718 C 101.08561,40.46759 103.14411,35.91014 105.52451,32.76408 C 108.18181,29.25208 104.92051,23.81658 103.46911,21.8984 C 101.66951,19.51997 95.095909,18.05529 92.507309,17.37103 C 88.998809,16.44365 83.991909,17.24179 80.860309,18.2765 C 76.692309,19.65366 71.831409,18.76969 67.843109,20.08745 C 64.153309,21.30657 60.647709,21.55938 56.881209,22.80387 C 53.692409,23.85748 49.678109,22.80387 45.919309,22.80387 C 42.377409,22.80387 35.390409,17.70001 32.251409,18.73715 C 26.972509,20.48134 25.830209,19.56427 19.884909,21.8984 C 12.322209,24.86756 24.942609,27.9302 27.421209,28.58537 C 31.914409,29.77305 41.333709,36.3009 45.751209,37.7605 C 55.666609,42.07837 58.638109,41.03339 65.238809,41.26199 z "
         style="opacity:0.2;color:#000000;fill:#dbdbb9;fill-opacity:1;fill-rule:evenodd;stroke:#9a9856;stroke-width:0.99501836;stroke-linecap:butt;stroke-linejoin:miter;marker:none;marker-start:none;marker-mid:none;marker-end:none;stroke-miterlimit:4;stroke-dasharray:none;stroke-dashoffset:0;stroke-opacity:1;visibility:visible;display:inline;overflow:visible;enable-background:accumulate" />
      <path
         id="path3252"
         d="M 79.490009,37.29146 C 83.236409,37.29146 85.111309,38.19693 89.081709,38.19693 C 93.938109,38.19693 94.458609,36.52344 96.618009,33.66957 C 100.60301,28.40284 93.209309,27.11046 91.137009,26.42578 C 87.968109,25.37874 82.603309,25.52029 79.490009,25.52029 C 75.335009,25.52029 72.440509,27.33125 68.528209,27.33125 C 41.504409,30.23386 74.274009,36.81593 79.490009,37.29146 z "
         style="opacity:0.2;color:#000000;fill:#cccc9c;fill-opacity:1;fill-rule:evenodd;stroke:#9a9856;stroke-width:0.99501836;stroke-linecap:butt;stroke-linejoin:miter;marker:none;marker-start:none;marker-mid:none;marker-end:none;stroke-miterlimit:4;stroke-dasharray:none;stroke-dashoffset:0;stroke-opacity:1;visibility:visible;display:inline;overflow:visible;enable-background:accumulate" />
      <path
         id="path3294"
         d="M 304.50241,260.15242 C 299.63371,261.76102 295.27311,266.17622 289.10561,264.13842 C 282.93801,262.10052 275.95301,265.02422 271.29251,262.65122 C 265.45641,259.67972 258.13601,259.43412 252.10931,259.43412 C 245.84501,259.43412 239.30951,257.62312 232.92601,257.62312 C 225.84651,257.62312 220.30851,253.97122 216.31201,250.62362 C 208.99011,241.08662 203.61731,242.72942 196.82651,237.64412 C 189.58571,235.73022 185.03771,233.23792 177.98581,229.50982 C 172.80901,226.77312 162.50761,229.55492 156.84991,229.55492 C 152.64911,229.55492 146.01491,233.82292 141.81151,233.82292 C 136.56531,233.82292 128.72891,234.91182 123.89561,236.55442 C 119.41821,238.07602 115.98161,241.58552 110.98121,242.38752 C 107.18621,242.99612 97.668509,244.56942 92.174809,245.16732 C 86.635609,245.77012 74.282009,250.20972 68.812209,250.20972 C 61.563609,250.20972 55.800509,253.69332 45.889109,253.16122 C 35.977609,252.62922 32.752609,256.36602 24.650509,256.36602 C 16.548309,256.36602 5.3663092,258.54372 0.49750918,260.15242"
         style="opacity:0.2;color:#000000;fill:none;fill-opacity:1;fill-rule:evenodd;stroke:#9a9a56;stroke-width:0.99501836;stroke-linecap:butt;stroke-linejoin:miter;marker:none;marker-start:none;marker-mid:none;marker-end:none;stroke-miterlimit:4;stroke-dasharray:none;stroke-dashoffset:0;stroke-opacity:1;visibility:visible;display:inline;overflow:visible;enable-background:accumulate" />
      <path
         id="path3292"
         d="M 304.50241,223.88202 C 301.22771,223.15572 288.79911,222.41952 281.94271,220.44402 C 280.99841,220.17192 280.05431,219.89992 279.11011,219.62782 C 273.95691,218.14312 268.52801,217.80312 263.53061,216.36332 C 258.79951,215.00012 254.35631,216.38152 250.07561,213.91485 C 245.96271,211.54479 240.80961,211.43184 236.62061,209.01799 C 232.36131,206.56352 228.30071,205.34574 223.87381,203.30496 C 220.06981,201.55132 215.35771,200.04039 211.12701,200.04039 C 206.50041,200.04035 202.24891,193.88917 199.08831,190.24662 C 196.44751,187.20318 195.54751,182.81587 195.54751,178.00444 C 195.54751,172.89607 197.02791,170.60381 199.79641,168.21071 C 202.63671,165.75575 207.47101,165.78882 211.12701,164.94613 C 215.22811,164.00075 219.01581,162.49768 223.87381,162.49768 C 227.31421,162.49764 232.16681,159.28031 235.91251,158.41696 C 242.33541,156.93648 247.22611,155.96854 254.32461,155.96854 C 259.62941,155.96854 268.77491,152.62121 274.15301,151.07165 C 279.00841,149.67269 283.10311,149.43938 288.31611,149.43938 C 291.31561,149.43938 301.87511,150.2816 304.50241,151.39211"
         style="opacity:0.2;color:#000000;fill:#cccc9c;fill-opacity:1;fill-rule:evenodd;stroke:#9a9856;stroke-width:0.99501836;stroke-linecap:butt;stroke-linejoin:miter;marker:none;marker-start:none;marker-mid:none;marker-end:none;stroke-miterlimit:4;stroke-dasharray:none;stroke-dashoffset:0;stroke-opacity:1;visibility:visible;display:inline;overflow:visible;enable-background:accumulate" />
      <path
         id="path3286"
         d="M 304.50241,162.1298 C 299.65661,159.59896 288.77711,159.23311 287.60791,159.23311 C 282.93141,159.23311 278.22691,159.23311 273.44481,159.23311 C 266.92451,159.23311 263.00621,162.44476 257.15721,164.12998 C 252.19381,165.56003 246.29531,165.76225 240.86961,165.76226 C 235.14481,165.76226 231.25021,169.843 225.99831,169.843 C 222.94691,169.843 209.71071,171.52085 209.71071,175.55601 C 209.71071,180.67427 212.57261,182.11891 216.08411,186.16592 C 218.72491,189.20939 222.81391,192.49238 225.99831,194.32736 C 230.58471,196.97028 235.38381,198.10343 240.16141,200.85652 C 245.80821,204.11044 251.02811,203.98747 257.15721,205.75338 C 261.73981,207.07375 268.07171,207.5207 272.73661,207.5207 C 273.20881,207.5207 273.69501,207.38873 274.15301,207.5207 C 278.78421,208.85506 283.06351,210.29205 287.60791,211.60141 C 288.74411,211.92874 300.84171,212.6489 304.50241,212.77831"
         style="opacity:0.2;color:#000000;fill:#dbdbb9;fill-opacity:1;fill-rule:evenodd;stroke:#9a9856;stroke-width:0.99501836;stroke-linecap:butt;stroke-linejoin:miter;marker:none;marker-start:none;marker-mid:none;marker-end:none;stroke-miterlimit:4;stroke-dasharray:none;stroke-dashoffset:0;stroke-opacity:1;visibility:visible;display:inline;overflow:visible;enable-background:accumulate" />
      <path
         id="path3290"
         d="M 304.50241,202.98253 C 298.47211,203.65916 292.52661,202.20506 291.44411,201.95555 C 287.11421,200.9575 275.68601,201.58844 271.69771,199.74988 C 267.87761,197.98882 264.58911,198.80053 261.07541,196.77579 C 258.46181,195.26975 252.19201,194.32736 249.03671,194.32736 C 245.55141,194.32737 242.28321,191.13841 238.41431,190.24662 C 234.81121,189.4161 233.38161,184.18525 232.74911,181.26903 C 231.39371,175.02069 234.53681,174.52584 238.41431,172.29143 C 243.64431,169.2777 253.37321,173.92373 258.95091,173.92373 C 260.97181,173.92372 267.63621,171.42128 270.28141,170.65914 C 275.37741,169.19089 280.85721,170.46851 285.86091,169.02688 C 288.36271,168.30604 296.52951,171.58839 304.50241,173.40329"
         style="opacity:0.2;color:#000000;fill:#cccc9c;fill-opacity:1;fill-rule:evenodd;stroke:#9a9856;stroke-width:0.99501836;stroke-linecap:butt;stroke-linejoin:miter;marker:none;marker-start:none;marker-mid:none;marker-end:none;stroke-miterlimit:4;stroke-dasharray:none;stroke-dashoffset:0;stroke-opacity:1;visibility:visible;display:inline;overflow:visible;enable-background:accumulate" />
      <path
         id="path3288"
         d="M 304.50241,181.51986 C 300.29711,179.44607 295.85961,177.37731 292.10731,177.50325 C 284.60271,177.75513 278.66361,178.23149 277.80051,178.48019 C 274.34791,179.47498 271.26181,180.69662 267.61421,179.64567 C 263.84881,178.56077 259.70331,180.15652 255.57551,180.15652 C 252.47071,180.15652 246.05291,178.53941 246.36941,181.7888 C 246.87061,186.93375 251.75911,185.5861 255.57551,186.68567 C 262.02661,190.18805 264.04571,187.53084 272.57131,191.0717 C 274.70271,191.95692 283.58771,193.33573 292.17281,193.29209 C 296.46531,193.27027 299.98811,193.21562 304.50241,193.10383"
         style="opacity:0.2;color:#000000;fill:#dbdbb9;fill-opacity:1;fill-rule:evenodd;stroke:#9a9856;stroke-width:0.99501836;stroke-linecap:butt;stroke-linejoin:miter;marker:none;marker-start:none;marker-mid:none;marker-end:none;stroke-miterlimit:4;stroke-dasharray:none;stroke-dashoffset:0;stroke-opacity:1;visibility:visible;display:inline;overflow:visible;enable-background:accumulate" />
      <path
         id="path3280"
         d="M 304.50241,110.60832 C 300.44741,111.26014 294.41231,108.25852 291.74321,109.14042 C 289.07411,110.0223 285.29161,107.96039 280.88421,109.1254 C 276.44861,110.29783 271.65591,111.269 267.18181,112.74729 C 262.91861,114.15589 255.94911,115.46373 251.42411,115.46372 C 244.78691,115.46372 238.83561,120.89654 232.24091,120.89654 C 226.97171,120.89654 222.79461,124.11783 217.85341,125.42393 C 214.05521,126.42789 210.10171,127.75882 206.20641,129.04583 C 201.83321,130.49078 196.36561,130.85676 191.81901,130.85677 C 187.74701,130.85677 182.06561,132.16152 178.11671,130.85677 C 174.24301,129.57689 167.83821,128.14035 163.72921,128.14036 C 159.56931,128.14036 152.68921,126.12882 149.34171,127.23485 C 143.65171,129.11493 136.01651,127.87784 130.15851,126.32939 C 124.06581,124.71894 115.97021,122.83595 109.60501,124.51846 C 104.55271,125.85392 100.39991,124.51846 95.217509,124.51846 C 90.515809,124.51846 84.675409,125.10989 80.144909,123.61298 C 75.294109,122.01022 67.564509,119.99108 62.331909,119.99107 C 54.838609,119.99107 48.199909,115.46373 40.408109,115.46372 C 32.616409,115.46371 42.643009,115.46372 36.204209,115.46372 C 29.765409,115.46372 23.477409,114.15345 17.706009,114.15346 C 11.934609,114.15347 4.5525092,109.95649 0.49750918,110.60832"
         style="opacity:0.2;color:#000000;fill:none;fill-opacity:1;fill-rule:evenodd;stroke:#9a9a56;stroke-width:0.99501836;stroke-linecap:butt;stroke-linejoin:miter;marker:none;marker-start:none;marker-mid:none;marker-end:none;stroke-miterlimit:4;stroke-dasharray:none;stroke-dashoffset:0;stroke-opacity:1;visibility:visible;display:inline;overflow:visible;enable-background:accumulate" />
      <path
         id="path3272"
         d="M 304.50241,4.27252 C 299.95811,4.47417 296.67701,5.01911 290.70081,7.23256 C 284.72471,9.44601 277.59591,9.44316 270.90961,9.32834 C 266.84401,9.32834 258.63711,10.40371 253.56521,9.64719 C 248.49331,8.89068 239.46041,6.60759 235.59411,6.60759 C 225.58591,6.60759 217.29761,3.34247 207.57671,6.55436 C 199.52521,9.21461 191.12461,8.91103 182.91241,11.08171 C 170.62341,14.82755 157.81731,14.7126 145.23111,12.89268 C 133.87571,10.74873 121.81981,3.10933 110.29011,3.10933 C 99.349809,3.10933 88.801109,6.98371 78.089609,6.98371 C 69.072409,6.98371 59.854209,7.88916 50.684909,7.88916 C 39.414509,7.88916 30.680609,3.03006 19.854609,0.64538 C 15.320009,-0.35349 4.8037092,4.02618 0.70410918,4.27252"
         style="opacity:0.2;color:#000000;fill:none;fill-opacity:1;fill-rule:evenodd;stroke:#9a9a56;stroke-width:0.99501836;stroke-linecap:butt;stroke-linejoin:miter;marker:none;marker-start:none;marker-mid:none;marker-end:none;stroke-miterlimit:4;stroke-dasharray:none;stroke-dashoffset:0;stroke-opacity:1;visibility:visible;display:inline;overflow:visible;enable-background:accumulate" />
      <path
         id="path3266"
         d="M 301.95271,187.63882 C 302.55431,186.12434 295.09681,183.23149 292.53871,183.0624 C 288.64181,183.74323 286.71571,183.65303 284.59821,183.79741 C 282.82801,183.91809 278.58401,182.39711 274.03001,183.64415 C 269.36081,184.92273 269.50381,186.36904 272.28621,186.58424 C 276.70831,187.11088 279.02571,187.94844 283.63291,188.09893 C 288.24001,188.24945 285.70141,188.99594 291.85361,188.99595 C 296.67591,188.99595 301.37531,189.09217 301.95271,187.63882 z "
         style="opacity:0.2;color:#000000;fill:#cccc9c;fill-opacity:1;fill-rule:evenodd;stroke:#9a9856;stroke-width:0.99501836;stroke-linecap:butt;stroke-linejoin:miter;marker:none;marker-start:none;marker-mid:none;marker-end:none;stroke-miterlimit:4;stroke-dasharray:none;stroke-dashoffset:0;stroke-opacity:1;visibility:visible;display:inline;overflow:visible;enable-background:accumulate" />
      <path
         id="path3262"
         d="M 143.09431,87.60707 C 147.64451,90.01255 153.67471,92.89943 158.61131,92.89943 C 162.81731,92.89943 166.66641,91.57634 171.12501,91.57634 C 176.38061,91.57634 181.20421,92.54612 186.14141,90.91478 C 191.66961,89.08824 194.74871,85.35998 199.15571,80.99168 C 202.18951,77.98447 201.38491,69.6224 200.65731,65.77622 C 199.14051,57.7575 193.05291,59.82234 188.14371,59.82234 C 181.96151,59.82234 175.86891,60.48388 169.62341,60.48388 C 162.43061,60.48388 154.73391,61.12145 147.59931,62.46851 C 142.35931,63.45785 137.21531,65.7425 132.08231,67.0993 C 128.62911,68.01208 126.00711,71.63049 124.07351,75.03779 C 121.85431,78.94833 124.12801,81.35849 126.57621,82.97629 C 131.78281,85.44505 136.16581,85.48915 143.09431,87.60707 z "
         style="opacity:0.2;color:#000000;fill:#cccc9c;fill-opacity:1;fill-rule:evenodd;stroke:#9a9856;stroke-width:0.99501836;stroke-linecap:butt;stroke-linejoin:miter;marker:none;marker-start:none;marker-mid:none;marker-end:none;stroke-miterlimit:4;stroke-dasharray:none;stroke-dashoffset:0;stroke-opacity:1;visibility:visible;display:inline;overflow:visible;enable-background:accumulate" />
      <path
         id="path3246"
         d="M 0.49750918,34.36465 C 2.9932092,34.34763 2.5418092,36.05268 7.5240092,38.67495 C 12.506309,41.29724 18.951209,44.83675 21.131609,44.83674 C 25.492509,44.83673 31.322509,47.29842 34.833909,48.45862 C 38.768509,49.75866 42.563909,50.7863 46.480909,52.08051 C 50.544309,53.42309 55.085609,53.89148 59.498109,53.89148 C 63.682809,53.89148 68.049909,53.54787 71.830309,54.79697 C 75.610709,56.04606 78.741209,55.26947 82.792109,56.6079 C 86.843009,57.94634 95.409009,55.70242 99.328209,55.70242 C 103.16441,55.70242 106.38811,52.39531 109.60501,50.26959 C 113.28591,47.83715 116.69271,45.28134 119.88171,42.12031 C 123.32351,38.70875 128.90081,38.64975 132.89891,37.59295 C 138.04231,36.23341 144.88141,35.78198 150.02681,35.78198 C 155.75691,35.78197 159.96101,32.04692 165.09941,30.34915 C 169.58391,28.86744 174.64331,28.5382 179.48691,28.5382 C 194.02361,28.38867 203.94391,20.68868 216.48321,28.5382 C 219.42291,30.48082 227.31881,30.34915 230.87061,30.34915 C 235.93681,30.34915 239.59131,29.60865 244.57301,31.25462 C 251.07751,33.40379 257.21821,31.33737 263.75621,33.06558 C 269.92851,34.69707 275.93061,35.11373 281.56931,36.97677 C 287.40181,37.71968 299.20261,35.92034 304.50241,34.36465"
         style="opacity:0.2;color:#000000;fill:none;fill-opacity:1;fill-rule:evenodd;stroke:#9a9a56;stroke-width:0.99501836;stroke-linecap:butt;stroke-linejoin:miter;marker:none;marker-start:none;marker-mid:none;marker-end:none;stroke-miterlimit:4;stroke-dasharray:none;stroke-dashoffset:0;stroke-opacity:1;visibility:visible;display:inline;overflow:visible;enable-background:accumulate" />
      <path
         id="path3244"
         d="M 0.49750918,81.05571 C 6.3669092,82.40524 12.919209,81.39546 19.076309,81.4349 C 23.589709,81.4349 27.130109,84.39341 31.408409,84.39341 C 35.122809,84.39341 39.275509,86.36577 43.055309,86.36577 C 47.997209,86.36577 52.431409,88.92068 57.425609,88.49606 C 60.425909,88.24097 63.894609,86.99643 63.580909,84.52832 C 63.264609,82.04087 60.394209,82.70386 57.494109,81.66025 C 53.643509,80.27459 51.871009,80.61979 47.851209,79.46253 C 42.474409,77.91463 36.467509,77.4902 30.723209,77.4902 C 25.706509,77.4902 21.367309,77.4902 16.335809,77.4902 C 11.304309,77.4902 3.6720092,72.42244 0.49750918,71.46625"
         style="opacity:0.2;color:#000000;fill:#cccc9c;fill-opacity:1;fill-rule:evenodd;stroke:#9a9856;stroke-width:0.99501836;stroke-linecap:butt;stroke-linejoin:miter;marker:none;marker-start:none;marker-mid:none;marker-end:none;stroke-miterlimit:4;stroke-dasharray:none;stroke-dashoffset:0;stroke-opacity:1;visibility:visible;display:inline;overflow:visible;enable-background:accumulate" />
      <path
         id="path3238"
         d="M 0.49750918,120.25137 C 1.9537092,120.06911 10.328309,124.82901 17.921709,124.82901 C 25.515209,124.82901 33.752409,130.84804 41.281909,131.79084 C 51.631709,133.08681 58.221909,136.73786 68.867609,136.73786 C 81.457209,136.73786 93.145909,137.58354 103.53211,139.54452 C 114.86681,141.68457 126.22441,146.53148 137.51041,149.51467 C 144.37711,151.3297 151.69651,147.18951 158.74691,147.18953 C 165.94141,147.18953 171.76371,148.50203 178.56761,146.25396 C 184.19071,144.39606 189.54421,139.98107 195.55681,137.99444 C 203.23981,135.45588 210.73501,135.9628 218.91681,135.9628 C 225.56281,135.9628 233.34151,130.7604 240.15331,128.95987 C 246.04291,127.40309 252.29691,125.93711 258.55821,124.28206 C 264.51231,122.70824 269.81051,121.12064 275.54741,119.60423 C 280.72061,118.23686 283.60871,119.60421 288.28931,119.60423 C 291.89021,119.60423 303.04621,120.43362 304.50241,120.25137"
         style="opacity:0.2;color:#000000;fill:none;fill-opacity:1;fill-rule:evenodd;stroke:#9a9a56;stroke-width:0.99501836;stroke-linecap:butt;stroke-linejoin:miter;marker:none;marker-start:none;marker-mid:none;marker-end:none;stroke-miterlimit:4;stroke-dasharray:none;stroke-dashoffset:0;stroke-opacity:1;visibility:visible;display:inline;overflow:visible;enable-background:accumulate" />
      <path
         id="path3236"
         d="M 0.49750918,249.83882 C 6.4066092,247.25972 13.903209,243.84812 21.417809,244.33912 C 27.406609,244.33912 33.997809,242.36882 39.822809,240.44422 C 47.577309,237.88202 57.861709,237.31652 66.014409,237.31652 C 76.723609,237.31652 89.398109,227.65632 99.992709,225.32262 C 107.64241,223.63762 119.00261,212.90626 126.89221,215.51302 C 131.48251,217.02972 135.71911,212.74101 140.34201,213.96295 C 147.87471,215.95402 154.50501,214.89852 162.28631,214.89852 C 169.21531,214.89852 176.93401,216.56552 183.52281,218.74252 C 189.74081,220.79702 195.79731,226.31712 201.92771,227.93762 C 210.32481,230.15712 219.22251,235.20202 227.41141,237.90772 C 233.26051,239.84032 238.12681,241.58032 243.69271,243.41932 C 247.34771,244.62702 253.22571,245.29042 257.14251,245.29052 C 261.86341,245.29052 266.48821,247.16152 271.30011,247.16162 C 276.54591,247.16162 281.33171,247.75492 286.16561,249.03272 C 290.99961,250.31052 300.75811,251.20062 304.50241,249.83882"
         style="opacity:0.2;color:#000000;fill:none;fill-opacity:1;fill-rule:evenodd;stroke:#9a9a56;stroke-width:0.99501836;stroke-linecap:butt;stroke-linejoin:miter;marker:none;marker-start:none;marker-mid:none;marker-end:none;stroke-miterlimit:4;stroke-dasharray:none;stroke-dashoffset:0;stroke-opacity:1;visibility:visible;display:inline;overflow:visible;enable-background:accumulate" />
      <path
         id="path3232"
         d="M 0.49750918,173.40329 C 9.4266092,175.43589 26.374509,179.62175 32.421509,178.24028 C 38.468509,176.85881 56.451309,171.99566 62.268409,171.99566 C 68.295109,171.99566 72.956009,171.86357 77.841809,175.73791 C 80.770509,178.06034 88.094109,185.11465 84.920609,190.70688 C 82.580209,194.83107 78.902509,198.25696 74.027909,198.25696 C 70.279809,198.25696 66.560109,196.46987 62.973709,196.46987 C 58.595909,196.27194 56.420009,198.27379 52.393409,198.31204 C 48.366909,198.35029 44.148009,196.62483 39.872809,196.88473 C 33.863509,197.51426 32.304909,197.71135 24.632209,198.68099 C 16.959509,199.65067 6.5279092,202.30589 0.49750918,202.98253"
         style="opacity:0.2;color:#000000;fill:#cccc9c;fill-opacity:1;fill-rule:evenodd;stroke:#9a9856;stroke-width:0.99501836;stroke-linecap:butt;stroke-linejoin:miter;marker:none;marker-start:none;marker-mid:none;marker-end:none;stroke-miterlimit:4;stroke-dasharray:none;stroke-dashoffset:0;stroke-opacity:1;visibility:visible;display:inline;overflow:visible;enable-background:accumulate" />
      <path
         id="path3234"
         d="M 0.49750918,193.10383 C 5.0118092,192.99203 10.517709,192.8231 15.779509,192.57272 C 26.303209,192.07191 36.449309,190.16932 44.396409,189.68307 C 52.343509,189.19683 55.357109,192.55587 57.495709,192.55587 C 59.634309,192.55587 67.691409,191.78284 72.071009,191.78284 C 76.770809,191.78284 76.783409,190.68854 77.841809,185.09352 C 78.488409,181.67499 71.080409,179.80707 67.931409,179.80707 C 64.782509,179.80707 58.404509,179.80707 55.897409,179.80707 C 53.390409,179.80707 47.197109,184.17473 39.622609,184.30226 C 32.048109,184.42977 23.288709,185.3553 13.546909,185.56678 C 8.6761092,185.67251 4.7028092,183.59366 0.49750918,181.51986"
         style="opacity:0.2;color:#000000;fill:#dbdbb9;fill-opacity:1;fill-rule:evenodd;stroke:#9a9856;stroke-width:0.99501836;stroke-linecap:butt;stroke-linejoin:miter;marker:none;marker-start:none;marker-mid:none;marker-end:none;stroke-miterlimit:4;stroke-dasharray:none;stroke-dashoffset:0;stroke-opacity:1;visibility:visible;display:inline;overflow:visible;enable-background:accumulate" />
      <path
         id="path3226"
         d="M 62.035509,183.67368 C 64.843209,183.57098 72.748409,183.55734 72.320809,185.70126 C 71.888509,187.869 64.075209,187.07665 62.595509,187.4714 C 61.115809,187.86616 54.257209,187.65525 54.159109,186.48789 C 54.035609,185.01808 59.227909,183.77638 62.035509,183.67368 z "
         style="opacity:0.2;color:#000000;fill:#cccc9c;fill-opacity:1;fill-rule:evenodd;stroke:#9a9856;stroke-width:0.99501836;stroke-linecap:butt;stroke-linejoin:miter;marker:none;marker-start:none;marker-mid:none;marker-end:none;stroke-miterlimit:4;stroke-dasharray:none;stroke-dashoffset:0;stroke-opacity:1;visibility:visible;display:inline;overflow:visible;enable-background:accumulate" />
      <path
         id="path3254"
         d="M 74.175309,30.68794 C 73.227209,35.70009 82.029909,31.24584 85.822309,32.49888 C 90.259109,33.96484 92.649109,32.49082 87.192609,30.68794 C 83.930509,29.61014 80.429709,29.58526 78.286009,28.87697 C 76.884809,28.414 75.545609,30.08427 74.175309,30.68794 z "
         style="opacity:0.2;color:#000000;fill:#dbdbb9;fill-opacity:1;fill-rule:evenodd;stroke:#9a9856;stroke-width:0.99501836;stroke-linecap:butt;stroke-linejoin:miter;marker:none;marker-start:none;marker-mid:none;marker-end:none;stroke-miterlimit:4;stroke-dasharray:none;stroke-dashoffset:0;stroke-opacity:1;visibility:visible;display:inline;overflow:visible;enable-background:accumulate" />
      <path
         id="path3260"
         d="M 171.13141,256.23202 C 175.20801,254.88502 168.73701,251.48972 165.20761,251.75952 C 148.15231,253.06302 163.66961,258.05472 171.13141,256.23202 z "
         style="opacity:0.2;color:#000000;fill:#cccc9c;fill-opacity:1;fill-rule:evenodd;stroke:#9a9856;stroke-width:0.99501836;stroke-linecap:butt;stroke-linejoin:miter;marker:none;marker-start:none;marker-mid:none;marker-end:none;stroke-miterlimit:4;stroke-dasharray:none;stroke-dashoffset:0;stroke-opacity:1;visibility:visible;display:inline;overflow:visible;enable-background:accumulate" />
      <path
         id="path3274"
         d="M 304.50241,71.46625 C 301.32801,70.51005 298.76331,65.67014 297.72871,64.75715 C 294.83441,62.20303 289.96411,64.75715 286.08181,64.75715 C 282.02021,64.75715 278.43111,65.66265 274.43481,65.66265 C 269.71861,65.66265 268.29711,68.82241 264.15801,70.19 C 260.75411,71.31468 256.40581,73.03044 252.51101,72.00094 C 248.52021,70.94607 244.84331,72.00094 240.86401,72.00094 C 239.51471,72.00094 230.82491,69.81172 231.27241,75.62285 C 231.56911,79.47596 236.24771,77.4338 240.17891,77.4338 C 243.94681,77.4338 247.74841,77.2184 251.14081,78.33928 C 254.49801,79.44852 257.85611,81.96118 261.41751,81.96118 C 264.90581,81.96118 267.06761,82.86664 271.00921,82.86664 C 274.25861,82.86664 278.29231,83.48666 280.60081,81.96118 C 283.82951,79.82759 286.93861,79.24474 290.87761,79.24474 C 294.31391,79.24474 301.51201,80.06762 304.50241,81.05571"
         style="opacity:0.2;color:#000000;fill:#cccc9c;fill-opacity:1;fill-rule:evenodd;stroke:#9a9856;stroke-width:0.99501836;stroke-linecap:butt;stroke-linejoin:miter;marker:none;marker-start:none;marker-mid:none;marker-end:none;stroke-miterlimit:4;stroke-dasharray:none;stroke-dashoffset:0;stroke-opacity:1;visibility:visible;display:inline;overflow:visible;enable-background:accumulate" />
      <path
         id="path3248"
         d="M 270.76151,75.41339 C 267.05541,74.44503 272.64511,70.55779 278.64261,70.04444 C 284.94611,69.50487 291.34451,69.70001 294.27981,69.90757 C 297.82891,70.1585 298.46871,73.19162 295.47111,73.91787 C 292.47351,74.64414 292.49291,72.35638 285.95761,74.35616 C 279.52671,76.32401 272.61451,75.89756 270.76151,75.41339 z "
         style="opacity:0.2;color:#000000;fill:#dbdbb9;fill-opacity:1;fill-rule:evenodd;stroke:#9a9856;stroke-width:0.99501836;stroke-linecap:butt;stroke-linejoin:miter;marker:none;marker-start:none;marker-mid:none;marker-end:none;stroke-miterlimit:4;stroke-dasharray:none;stroke-dashoffset:0;stroke-opacity:1;visibility:visible;display:inline;overflow:visible;enable-background:accumulate" />
      <path
         id="path3264"
         d="M 141.85291,79.49147 C 145.55761,77.47653 154.64071,81.21914 158.59791,82.26515 C 164.12521,83.72615 165.88841,79.26147 171.12501,80.99168 C 175.75011,82.51984 180.37991,83.14518 184.63981,80.33013 C 187.62141,78.35986 188.14371,75.74577 188.14371,71.73008 C 188.14371,67.20185 185.53461,67.20351 182.63761,66.43775 C 179.47391,65.60151 175.29261,67.98376 172.62661,69.74545 C 169.68351,71.69037 164.03751,70.5182 161.11411,69.74545 C 156.27631,68.46671 151.27591,69.52295 146.59821,71.06852 C 142.64421,72.37497 139.13561,73.02301 136.08661,75.03779 C 132.74971,77.24294 137.81811,81.68598 141.85291,79.49147 z "
         style="opacity:0.2;color:#000000;fill:#dbdbb9;fill-opacity:1;fill-rule:evenodd;stroke:#9a9856;stroke-width:0.99501836;stroke-linecap:butt;stroke-linejoin:miter;marker:none;marker-start:none;marker-mid:none;marker-end:none;stroke-miterlimit:4;stroke-dasharray:none;stroke-dashoffset:0;stroke-opacity:1;visibility:visible;display:inline;overflow:visible;enable-background:accumulate" />
      <path
         id="path2267"
         d="M 180.62861,70.22023 C 177.54341,72.0713 172.89441,72.71485 174.16491,75.59313 C 174.56381,76.49674 180.62861,77.93304 182.47961,77.00751 C 184.33071,76.08197 184.94771,70.52874 180.62861,70.22023 z "
         style="opacity:0.2;color:#000000;fill:#cccc9c;fill-opacity:1;fill-rule:evenodd;stroke:#9a9856;stroke-width:0.99501836;stroke-linecap:butt;stroke-linejoin:miter;marker:none;marker-start:none;marker-mid:none;marker-end:none;stroke-miterlimit:4;stroke-dasharray:none;stroke-dashoffset:0;stroke-opacity:1;visibility:visible;display:inline;overflow:visible;enable-background:accumulate" />
    </g>
    <use
       x="0"
       y="0"
       xlink:href="#TEXTURE"
       id="use3580"
       transform="translate(304,0)"
       width="304.99991"
       height="267" />
    <use
       x="0"
       y="0"
       xlink:href="#TEXTURE"
       id="use3582"
       transform="translate(-304,0)"
       width="304.99991"
       height="267" />
    <use
       x="0"
       y="0"
       xlink:href="#TEXTURE"
       id="use3584"
       transform="translate(0,-267.00001)"
       width="304.99991"
       height="267" />
    <use
       x="0"
       y="0"
       xlink:href="#TEXTURE"
       id="use3586"
       transform="translate(0,266.99999)"
       width="304.99991"
       height="267" />
  </g>
</svg>
